<mxfile host="app.diagrams.net" modified="2024-03-12T08:20:48.654Z" agent="Mozilla/5.0 (Macintosh; Intel Mac OS X 10_15_7) AppleWebKit/537.36 (KHTML, like Gecko) Chrome/122.0.0.0 Safari/537.36" etag="qxTah5PS13k0iBr1U4rN" version="24.0.3" type="github">
  <diagram id="6a731a19-8d31-9384-78a2-239565b7b9f0" name="Page-1">
    <mxGraphModel dx="2522" dy="1398" grid="1" gridSize="10" guides="1" tooltips="1" connect="1" arrows="1" fold="1" page="1" pageScale="1" pageWidth="1169" pageHeight="827" background="none" math="0" shadow="0">
      <root>
        <mxCell id="0" />
        <mxCell id="1" parent="0" />
        <mxCell id="2" value="start" style="shape=mxgraph.flowchart.terminator;strokeWidth=2;gradientColor=none;gradientDirection=north;fontStyle=0;html=1;" parent="1" vertex="1">
          <mxGeometry x="260" y="60" width="120" height="30" as="geometry" />
        </mxCell>
        <mxCell id="3" value="Привет и добро&amp;nbsp;&lt;div&gt;пожаловать&amp;nbsp;&lt;/div&gt;&lt;div&gt;в наш кампус&lt;div&gt;&lt;br&gt;&lt;/div&gt;&lt;/div&gt;" style="shape=mxgraph.flowchart.data;strokeWidth=2;gradientColor=none;gradientDirection=north;fontStyle=0;html=1;" parent="1" vertex="1">
          <mxGeometry x="240.5" y="131" width="159" height="80" as="geometry" />
        </mxCell>
        <mxCell id="5" value="Ты прошел&lt;br&gt;&amp;nbsp;пост охнаны?" style="shape=mxgraph.flowchart.data;strokeWidth=2;gradientColor=none;gradientDirection=north;fontStyle=0;html=1;" parent="1" vertex="1">
          <mxGeometry x="240.5" y="250" width="159" height="80" as="geometry" />
        </mxCell>
        <mxCell id="7" style="fontStyle=1;strokeColor=#003366;strokeWidth=1;html=1;" parent="1" source="2" target="3" edge="1">
          <mxGeometry relative="1" as="geometry" />
        </mxCell>
        <mxCell id="8" style="fontStyle=1;strokeColor=#003366;strokeWidth=1;html=1;" parent="1" source="3" target="5" edge="1">
          <mxGeometry relative="1" as="geometry" />
        </mxCell>
        <mxCell id="9" style="entryX=0.5;entryY=0;entryPerimeter=0;fontStyle=1;strokeColor=#003366;strokeWidth=1;html=1;" parent="1" source="5" edge="1">
          <mxGeometry relative="1" as="geometry">
            <mxPoint x="320" y="390" as="targetPoint" />
          </mxGeometry>
        </mxCell>
        <mxCell id="0RTNIWJe5xxAizN1OIcH-55" value="MongoDB" style="shape=cylinder3;whiteSpace=wrap;html=1;boundedLbl=1;backgroundOutline=1;size=15;" vertex="1" parent="1">
          <mxGeometry x="910" y="131" width="60" height="80" as="geometry" />
        </mxCell>
        <mxCell id="0RTNIWJe5xxAizN1OIcH-56" style="edgeStyle=orthogonalEdgeStyle;rounded=0;orthogonalLoop=1;jettySize=auto;html=1;exitX=0.905;exitY=0.5;exitDx=0;exitDy=0;exitPerimeter=0;entryX=0;entryY=0.5;entryDx=0;entryDy=0;entryPerimeter=0;" edge="1" parent="1" source="3" target="0RTNIWJe5xxAizN1OIcH-55">
          <mxGeometry relative="1" as="geometry" />
        </mxCell>
        <mxCell id="0RTNIWJe5xxAizN1OIcH-57" value="user id" style="text;html=1;align=center;verticalAlign=middle;resizable=0;points=[];autosize=1;strokeColor=none;fillColor=none;" vertex="1" parent="1">
          <mxGeometry x="490" y="148" width="60" height="30" as="geometry" />
        </mxCell>
        <mxCell id="0RTNIWJe5xxAizN1OIcH-58" value="да" style="text;html=1;align=center;verticalAlign=middle;resizable=0;points=[];autosize=1;strokeColor=none;fillColor=none;" vertex="1" parent="1">
          <mxGeometry x="310" y="338" width="40" height="30" as="geometry" />
        </mxCell>
        <mxCell id="0RTNIWJe5xxAizN1OIcH-65" style="edgeStyle=orthogonalEdgeStyle;rounded=0;orthogonalLoop=1;jettySize=auto;html=1;entryX=0.905;entryY=0.5;entryDx=0;entryDy=0;entryPerimeter=0;" edge="1" parent="1" source="0RTNIWJe5xxAizN1OIcH-59" target="0RTNIWJe5xxAizN1OIcH-64">
          <mxGeometry relative="1" as="geometry">
            <mxPoint x="520" y="460" as="targetPoint" />
            <Array as="points">
              <mxPoint x="559" y="530" />
            </Array>
          </mxGeometry>
        </mxCell>
        <mxCell id="0RTNIWJe5xxAizN1OIcH-59" value="Зарегистрируйся&amp;nbsp;&lt;div&gt;для прохода в школу&lt;/div&gt;" style="shape=mxgraph.flowchart.data;strokeWidth=2;gradientColor=none;gradientDirection=north;fontStyle=0;html=1;" vertex="1" parent="1">
          <mxGeometry x="479.5" y="250" width="159" height="80" as="geometry" />
        </mxCell>
        <mxCell id="0RTNIWJe5xxAizN1OIcH-61" style="edgeStyle=orthogonalEdgeStyle;rounded=0;orthogonalLoop=1;jettySize=auto;html=1;exitX=0.905;exitY=0.5;exitDx=0;exitDy=0;exitPerimeter=0;entryX=0.095;entryY=0.5;entryDx=0;entryDy=0;entryPerimeter=0;" edge="1" parent="1" source="5" target="0RTNIWJe5xxAizN1OIcH-59">
          <mxGeometry relative="1" as="geometry" />
        </mxCell>
        <mxCell id="0RTNIWJe5xxAizN1OIcH-62" value="нет" style="text;html=1;align=center;verticalAlign=middle;resizable=0;points=[];autosize=1;strokeColor=none;fillColor=none;" vertex="1" parent="1">
          <mxGeometry x="410" y="268" width="40" height="30" as="geometry" />
        </mxCell>
        <mxCell id="0RTNIWJe5xxAizN1OIcH-68" value="" style="edgeStyle=orthogonalEdgeStyle;rounded=0;orthogonalLoop=1;jettySize=auto;html=1;" edge="1" parent="1" source="0RTNIWJe5xxAizN1OIcH-64" target="0RTNIWJe5xxAizN1OIcH-67">
          <mxGeometry relative="1" as="geometry" />
        </mxCell>
        <mxCell id="0RTNIWJe5xxAizN1OIcH-64" value="Перед тобой&amp;nbsp;&lt;div&gt;наша фотозона&lt;/div&gt;" style="shape=mxgraph.flowchart.data;strokeWidth=2;gradientColor=none;gradientDirection=north;fontStyle=0;html=1;" vertex="1" parent="1">
          <mxGeometry x="240.5" y="490" width="159" height="80" as="geometry" />
        </mxCell>
        <mxCell id="0RTNIWJe5xxAizN1OIcH-66" value="Успех" style="text;html=1;align=center;verticalAlign=middle;resizable=0;points=[];autosize=1;strokeColor=none;fillColor=none;" vertex="1" parent="1">
          <mxGeometry x="420" y="508" width="60" height="30" as="geometry" />
        </mxCell>
        <mxCell id="0RTNIWJe5xxAizN1OIcH-75" value="" style="edgeStyle=orthogonalEdgeStyle;rounded=0;orthogonalLoop=1;jettySize=auto;html=1;" edge="1" parent="1" source="0RTNIWJe5xxAizN1OIcH-67" target="0RTNIWJe5xxAizN1OIcH-74">
          <mxGeometry relative="1" as="geometry" />
        </mxCell>
        <mxCell id="0RTNIWJe5xxAizN1OIcH-67" value="карта кампуса 1 эт" style="whiteSpace=wrap;html=1;strokeWidth=2;gradientColor=none;gradientDirection=north;fontStyle=0;" vertex="1" parent="1">
          <mxGeometry x="260" y="600" width="120" height="60" as="geometry" />
        </mxCell>
        <mxCell id="0RTNIWJe5xxAizN1OIcH-70" style="edgeStyle=orthogonalEdgeStyle;rounded=0;orthogonalLoop=1;jettySize=auto;html=1;entryX=0;entryY=0;entryDx=0;entryDy=52.5;entryPerimeter=0;exitX=0.865;exitY=0.713;exitDx=0;exitDy=0;exitPerimeter=0;" edge="1" parent="1" source="0RTNIWJe5xxAizN1OIcH-64" target="0RTNIWJe5xxAizN1OIcH-55">
          <mxGeometry relative="1" as="geometry">
            <Array as="points">
              <mxPoint x="378" y="550" />
              <mxPoint x="655" y="550" />
              <mxPoint x="655" y="184" />
            </Array>
          </mxGeometry>
        </mxCell>
        <mxCell id="0RTNIWJe5xxAizN1OIcH-73" value="" style="edgeStyle=orthogonalEdgeStyle;rounded=0;orthogonalLoop=1;jettySize=auto;html=1;" edge="1" parent="1" source="0RTNIWJe5xxAizN1OIcH-71" target="0RTNIWJe5xxAizN1OIcH-64">
          <mxGeometry relative="1" as="geometry" />
        </mxCell>
        <mxCell id="0RTNIWJe5xxAizN1OIcH-71" value="" style="ellipse;whiteSpace=wrap;html=1;" vertex="1" parent="1">
          <mxGeometry x="280" y="390" width="80" height="80" as="geometry" />
        </mxCell>
        <mxCell id="0RTNIWJe5xxAizN1OIcH-79" value="" style="edgeStyle=orthogonalEdgeStyle;rounded=0;orthogonalLoop=1;jettySize=auto;html=1;" edge="1" parent="1" source="0RTNIWJe5xxAizN1OIcH-74" target="0RTNIWJe5xxAizN1OIcH-78">
          <mxGeometry relative="1" as="geometry" />
        </mxCell>
        <mxCell id="0RTNIWJe5xxAizN1OIcH-74" value="Предлагаю пройтись по&lt;div&gt;&amp;nbsp;кампусу, варианты:&lt;/div&gt;" style="shape=mxgraph.flowchart.data;strokeWidth=2;gradientColor=none;gradientDirection=north;fontStyle=0;html=1;" vertex="1" parent="1">
          <mxGeometry x="240.5" y="690" width="159" height="80" as="geometry" />
        </mxCell>
        <mxCell id="0RTNIWJe5xxAizN1OIcH-91" value="" style="edgeStyle=orthogonalEdgeStyle;rounded=0;orthogonalLoop=1;jettySize=auto;html=1;" edge="1" parent="1" source="0RTNIWJe5xxAizN1OIcH-78" target="0RTNIWJe5xxAizN1OIcH-90">
          <mxGeometry relative="1" as="geometry" />
        </mxCell>
        <mxCell id="0RTNIWJe5xxAizN1OIcH-78" value="Карта с подсвеченным вариантом" style="whiteSpace=wrap;html=1;strokeWidth=2;gradientColor=none;gradientDirection=north;fontStyle=0;" vertex="1" parent="1">
          <mxGeometry x="260" y="800" width="120" height="60" as="geometry" />
        </mxCell>
        <mxCell id="0RTNIWJe5xxAizN1OIcH-80" value="Это наша Столовая" style="shape=mxgraph.flowchart.data;strokeWidth=2;gradientColor=none;gradientDirection=north;fontStyle=0;html=1;" vertex="1" parent="1">
          <mxGeometry x="240.5" y="1000" width="159" height="80" as="geometry" />
        </mxCell>
        <mxCell id="0RTNIWJe5xxAizN1OIcH-82" value="" style="edgeStyle=orthogonalEdgeStyle;rounded=0;orthogonalLoop=1;jettySize=auto;html=1;exitX=0.905;exitY=0.5;exitDx=0;exitDy=0;exitPerimeter=0;" edge="1" parent="1" target="0RTNIWJe5xxAizN1OIcH-84" source="0RTNIWJe5xxAizN1OIcH-74">
          <mxGeometry relative="1" as="geometry">
            <mxPoint x="499.5" y="770" as="sourcePoint" />
          </mxGeometry>
        </mxCell>
        <mxCell id="0RTNIWJe5xxAizN1OIcH-102" value="" style="edgeStyle=orthogonalEdgeStyle;rounded=0;orthogonalLoop=1;jettySize=auto;html=1;" edge="1" parent="1" source="0RTNIWJe5xxAizN1OIcH-84" target="0RTNIWJe5xxAizN1OIcH-101">
          <mxGeometry relative="1" as="geometry" />
        </mxCell>
        <mxCell id="0RTNIWJe5xxAizN1OIcH-84" value="Карта с подсвеченным вариантом" style="whiteSpace=wrap;html=1;strokeWidth=2;gradientColor=none;gradientDirection=north;fontStyle=0;" vertex="1" parent="1">
          <mxGeometry x="439.5" y="800" width="120" height="60" as="geometry" />
        </mxCell>
        <mxCell id="0RTNIWJe5xxAizN1OIcH-85" value="Это наш Конференц-зал" style="shape=mxgraph.flowchart.data;strokeWidth=2;gradientColor=none;gradientDirection=north;fontStyle=0;html=1;" vertex="1" parent="1">
          <mxGeometry x="420" y="1000" width="159" height="80" as="geometry" />
        </mxCell>
        <mxCell id="0RTNIWJe5xxAizN1OIcH-86" value="" style="edgeStyle=orthogonalEdgeStyle;rounded=0;orthogonalLoop=1;jettySize=auto;html=1;exitX=0.905;exitY=0.5;exitDx=0;exitDy=0;exitPerimeter=0;" edge="1" parent="1" target="0RTNIWJe5xxAizN1OIcH-88" source="0RTNIWJe5xxAizN1OIcH-74">
          <mxGeometry relative="1" as="geometry">
            <mxPoint x="500" y="730" as="sourcePoint" />
          </mxGeometry>
        </mxCell>
        <mxCell id="0RTNIWJe5xxAizN1OIcH-105" value="" style="edgeStyle=orthogonalEdgeStyle;rounded=0;orthogonalLoop=1;jettySize=auto;html=1;" edge="1" parent="1" source="0RTNIWJe5xxAizN1OIcH-88" target="0RTNIWJe5xxAizN1OIcH-104">
          <mxGeometry relative="1" as="geometry" />
        </mxCell>
        <mxCell id="0RTNIWJe5xxAizN1OIcH-88" value="Карта с подсвеченным вариантом" style="whiteSpace=wrap;html=1;strokeWidth=2;gradientColor=none;gradientDirection=north;fontStyle=0;" vertex="1" parent="1">
          <mxGeometry x="598.5" y="800" width="120" height="60" as="geometry" />
        </mxCell>
        <mxCell id="0RTNIWJe5xxAizN1OIcH-89" value="Это наш n +1" style="shape=mxgraph.flowchart.data;strokeWidth=2;gradientColor=none;gradientDirection=north;fontStyle=0;html=1;" vertex="1" parent="1">
          <mxGeometry x="579" y="1000" width="159" height="80" as="geometry" />
        </mxCell>
        <mxCell id="0RTNIWJe5xxAizN1OIcH-92" value="" style="edgeStyle=orthogonalEdgeStyle;rounded=0;orthogonalLoop=1;jettySize=auto;html=1;" edge="1" parent="1" source="0RTNIWJe5xxAizN1OIcH-90" target="0RTNIWJe5xxAizN1OIcH-80">
          <mxGeometry relative="1" as="geometry" />
        </mxCell>
        <mxCell id="0RTNIWJe5xxAizN1OIcH-90" value="" style="ellipse;whiteSpace=wrap;html=1;" vertex="1" parent="1">
          <mxGeometry x="280" y="890" width="80" height="80" as="geometry" />
        </mxCell>
        <mxCell id="0RTNIWJe5xxAizN1OIcH-96" value="столовая" style="text;html=1;align=center;verticalAlign=middle;resizable=0;points=[];autosize=1;strokeColor=none;fillColor=none;" vertex="1" parent="1">
          <mxGeometry x="319.5" y="770" width="80" height="30" as="geometry" />
        </mxCell>
        <mxCell id="0RTNIWJe5xxAizN1OIcH-97" value="Конференц зал" style="text;html=1;align=center;verticalAlign=middle;resizable=0;points=[];autosize=1;strokeColor=none;fillColor=none;" vertex="1" parent="1">
          <mxGeometry x="500" y="770" width="110" height="30" as="geometry" />
        </mxCell>
        <mxCell id="0RTNIWJe5xxAizN1OIcH-100" value="" style="edgeStyle=orthogonalEdgeStyle;rounded=0;orthogonalLoop=1;jettySize=auto;html=1;" edge="1" parent="1" source="0RTNIWJe5xxAizN1OIcH-101">
          <mxGeometry relative="1" as="geometry">
            <mxPoint x="499.5" y="1000" as="targetPoint" />
          </mxGeometry>
        </mxCell>
        <mxCell id="0RTNIWJe5xxAizN1OIcH-101" value="" style="ellipse;whiteSpace=wrap;html=1;" vertex="1" parent="1">
          <mxGeometry x="459.5" y="890" width="80" height="80" as="geometry" />
        </mxCell>
        <mxCell id="0RTNIWJe5xxAizN1OIcH-103" value="" style="edgeStyle=orthogonalEdgeStyle;rounded=0;orthogonalLoop=1;jettySize=auto;html=1;" edge="1" parent="1" source="0RTNIWJe5xxAizN1OIcH-104">
          <mxGeometry relative="1" as="geometry">
            <mxPoint x="658.5" y="1000" as="targetPoint" />
          </mxGeometry>
        </mxCell>
        <mxCell id="0RTNIWJe5xxAizN1OIcH-104" value="" style="ellipse;whiteSpace=wrap;html=1;" vertex="1" parent="1">
          <mxGeometry x="618.5" y="890" width="80" height="80" as="geometry" />
        </mxCell>
        <mxCell id="0RTNIWJe5xxAizN1OIcH-106" value="n +1" style="text;html=1;align=center;verticalAlign=middle;resizable=0;points=[];autosize=1;strokeColor=none;fillColor=none;" vertex="1" parent="1">
          <mxGeometry x="655" y="768" width="50" height="30" as="geometry" />
        </mxCell>
        <mxCell id="0RTNIWJe5xxAizN1OIcH-114" value="" style="curved=1;endArrow=classic;html=1;rounded=0;exitX=0.095;exitY=0.5;exitDx=0;exitDy=0;exitPerimeter=0;entryX=0.095;entryY=0.5;entryDx=0;entryDy=0;entryPerimeter=0;" edge="1" parent="1" source="0RTNIWJe5xxAizN1OIcH-80" target="0RTNIWJe5xxAizN1OIcH-74">
          <mxGeometry width="50" height="50" relative="1" as="geometry">
            <mxPoint x="560" y="950" as="sourcePoint" />
            <mxPoint x="610" y="900" as="targetPoint" />
            <Array as="points">
              <mxPoint x="140" y="1010" />
              <mxPoint x="170" y="970" />
              <mxPoint x="190" y="880" />
              <mxPoint x="180" y="720" />
            </Array>
          </mxGeometry>
        </mxCell>
        <mxCell id="0RTNIWJe5xxAizN1OIcH-115" value="" style="curved=1;endArrow=classic;html=1;rounded=0;exitX=0.095;exitY=0.5;exitDx=0;exitDy=0;exitPerimeter=0;" edge="1" parent="1" source="0RTNIWJe5xxAizN1OIcH-85">
          <mxGeometry width="50" height="50" relative="1" as="geometry">
            <mxPoint x="500" y="1110" as="sourcePoint" />
            <mxPoint x="250" y="730" as="targetPoint" />
            <Array as="points">
              <mxPoint x="410" y="1100" />
              <mxPoint x="320" y="1080" />
              <mxPoint x="160" y="1110" />
              <mxPoint x="100" y="880" />
            </Array>
          </mxGeometry>
        </mxCell>
      </root>
    </mxGraphModel>
  </diagram>
</mxfile>
